<?xml version="1.0" encoding="UTF-8"?><svg id="Layer_2" xmlns="http://www.w3.org/2000/svg" viewBox="0 0 543.22 65.7"><defs><style>.cls-1{font-family:AvertaCY-Regular, 'Averta CY';font-size:10px;letter-spacing:.02em;}.cls-2{stroke:#000;stroke-miterlimit:10;}.cls-3{fill-rule:evenodd;}</style></defs><g id="Layer_1-2"><path class="cls-3" d="m78.46,48.84c1.44-.13,1.67-.86,1.91-1.83l1.03-4.22c.35-1.45.25-1.46-1.18-1.81l.05-.18h3.08c1.2,0,2.83,0,2.83,1.67,0,1.09-.83,1.76-1.73,2.19.07.81.38,1.62.73,2.37.5,1.04.88,1.46,2.01,1.7l.41.1-.05.18h-.91c-1.26,0-1.86-.13-2.39-1.34-.39-.86-.66-1.76-.87-2.67-.5.04-.98.07-1.48,0l-.5,2.02c-.36,1.46-.25,1.46,1.33,1.83l-.05.18h-4.28l.05-.18h0Zm3.52-4.12c1.47.06,2.95-.4,2.95-2.14,0-1.15-.9-1.51-2.07-1.48l-.88,3.62h0Z"/><path class="cls-3" d="m92.72,46.88c-.47.78-1.51,2.3-2.51,2.3-.27,0-.42-.21-.42-.46,0-.63,1.04-2.99,1.56-4.27l-.08-.08c-.51.28-1.16.87-1.5,1.32l-.15-.09c.38-.86,1.47-2.04,2.25-2.04.25,0,.39.17.39.41,0,.69-.98,2.7-1.57,4.33l.09.04c.67-.41,1.27-.95,1.8-1.55l.16.1h0Zm.17-5.74c0,.34-.24.64-.59.64-.33,0-.57-.25-.57-.57,0-.35.23-.66.6-.66.35,0,.56.24.56.58h0Z"/><path class="cls-3" d="m94.52,49.13c.25-1.34.56-2.66,1.07-3.82.4-.91,1.14-1.75,2.22-1.75.47,0,.87.33,1.26.54.34-.3.68-.54,1.16-.54.22,0,.17.05.21.15-.96.59-1.34,2.03-1.5,3.08l-.2,1.49c-.12.8-.22,1.32-.74,1.95-.94,1.12-2.48,1.78-3.92,1.78-.71,0-1.89-.3-1.89-1.22,0-.59.76-.91,1.21-1.11l1.12-.53h0Zm3.69-2.98l-.03-.02c-.77.98-1.4,1.78-2.38,2.56-1.24,1-2.7,1.05-2.7,1.82s1.34.92,1.86.92c1.88,0,2.55-.94,2.81-2.69l.44-2.59h0Zm-2.69,2.18l.05.04c.71-.42,1.23-1.04,1.77-1.68.49-.57,1.03-1.15,1.31-1.86-.19-.18-1.15-.75-1.4-.75-.35,0-.5.53-.65.92l-1.07,3.34h0Z"/><path class="cls-3" d="m105.41,48.25c.74-.21,1.45-1,1.97-1.51l.15.11c-.46.65-1.75,2.33-2.68,2.33-.17,0-.52-.1-.46-.28l1.16-3.39-.02-.02c-1.39,1.85-2.78,3.69-3.48,3.69-.1,0-.55-.13-.55-.43,0-.56.71-2.73.96-3.3.22-.51.44-.95.88-1.31.31-.24.93-.58,1.34-.58.43,0,.99.41,1.34.64.11-.21.32-.8.61-.8.42,0,.24.52.16.74l-1.38,4.11h0Zm-2.83.1c1.27-.86,2.14-2.19,2.97-3.45-.31-.19-1.06-.82-1.41-.82-.57,0-1.47,3.23-1.68,4.2l.12.07h0Z"/><path class="cls-3" d="m122.48,40.8l-.62,2.07-.16-.04c0-1.55-.13-1.67-1.17-1.67h-1.42l-1.45,5.86c-.37,1.45-.25,1.46,1.33,1.82l-.05.18h-4.22l.05-.18c1.38-.13,1.61-.85,1.85-1.82l1.45-5.86h-1.21c-1.34,0-1.75.64-2.38,1.7l-.17-.04.52-2.03h7.64Z"/><path class="cls-3" d="m123.03,46.61c-.08.3-.58,1.81.02,1.81s1.87-.91,2.3-1.46l.19.12c-.63.94-2.01,2.09-3.01,2.09-.22,0-.64-.32-.64-.7,0-.91.38-2.57.8-3.37.34-.61,1.6-1.55,2.3-1.55.3,0,.98.44.98.87,0,.27-.42.52-.6.64l-2.33,1.55h0Zm1.47-1.32c.19-.13.52-.3.52-.58,0-.3-.47-.64-.74-.64-.64,0-1.03,1.67-1.12,2.09l1.34-.87h0Z"/><path class="cls-3" d="m131.41,47.24c-.57.78-1.95,1.93-2.95,1.93-.22,0-.64-.32-.64-.7,0-.91.38-2.57.8-3.37.34-.61,1.59-1.55,2.3-1.55.23,0,.86.34.86.59,0,.23-.41.58-.54.71-.22-.12-.92-.63-1.17-.63-.66,0-1.32,3.07-1.32,3.82,0,.18.02.37.24.37.62,0,1.88-.91,2.25-1.35l.18.17h0Z"/><path class="cls-3" d="m135.76,48.23c-.57.18-.35.94.3.94.35,0,.74-.3,1.01-.5.34-.28.37-.36.58-.76.45-.93,1.08-2.68,1.08-3.71,0-.36-.12-.65-.52-.65-.75,0-2.48,1.64-3.71,3.72l-.07-.04,2.17-6.83-.22-.12-1.67.73-.06.25c.76.4.64.33.57.71l-1.85,6.11-.11.4c-.07.32-.17.69.28.69.38,0,.62-.64.76-.91.94-1.75,2.79-4.06,3.36-4.06.13,0,.16.18.16.28,0,.62-.76,3.2-1.33,4.12l-.71-.38h0Z"/><path class="cls-3" d="m144.93,45.53c.11-.28.65-1.45.1-1.45-.94,0-3.3,5.1-4.02,5.1-.58,0-.06-1.2.02-1.42l1.32-3.48c-.76.1-1.23.81-1.64,1.4l-.13-.09c.22-.83.99-2.04,1.96-2.04.31,0,.63.13.74.44l-1.35,3.56.02.02.57-.9c.53-.81,1.89-3.12,2.93-3.12,1.1,0,.58,1.49.36,2.06l-.98,2.6.04.06c.65-.4,1.23-.92,1.76-1.48l.13.13c-.45.69-1.8,2.25-2.64,2.25-.59,0-.22-.92-.11-1.18l.92-2.47h0Z"/><path class="cls-3" d="m151.88,46.88c-.47.78-1.51,2.3-2.52,2.3-.27,0-.42-.21-.42-.46,0-.63,1.04-2.99,1.56-4.27l-.09-.08c-.51.28-1.16.87-1.5,1.32l-.14-.09c.38-.86,1.46-2.04,2.25-2.04.26,0,.39.17.39.41,0,.69-.98,2.7-1.57,4.33l.09.04c.68-.41,1.27-.95,1.8-1.55l.16.1h0Zm.17-5.74c0,.34-.24.64-.6.64-.33,0-.57-.25-.57-.57,0-.35.23-.66.6-.66.35,0,.56.24.56.58h0Z"/><path class="cls-3" d="m157.35,47.07c-.38.45-1.63,1.35-2.25,1.35-.22,0-.24-.19-.24-.37,0-.75.65-3.82,1.32-3.82.25,0,.95.51,1.17.63.13-.13.54-.48.54-.71,0-.25-.63-.59-.86-.59-.7,0-1.96.94-2.3,1.55-.42.8-.8,2.47-.8,3.37,0,.39.42.7.64.7,1,0,2.38-1.15,2.95-1.93l-.18-.17h0Z"/><path class="cls-3" d="m163.36,48.25c.74-.21,1.45-1,1.97-1.51l.16.11c-.46.65-1.75,2.33-2.68,2.33-.17,0-.52-.1-.46-.28l1.16-3.39-.02-.02c-1.39,1.85-2.78,3.69-3.48,3.69-.1,0-.54-.13-.54-.43,0-.56.71-2.73.95-3.3.22-.51.44-.95.89-1.31.31-.24.93-.58,1.34-.58.44,0,.99.41,1.34.64.11-.21.31-.8.61-.8.42,0,.24.52.16.74l-1.38,4.11h0Zm-2.83.1c1.27-.86,2.14-2.19,2.97-3.45-.31-.19-1.06-.82-1.41-.82-.57,0-1.48,3.23-1.68,4.2l.12.07h0Z"/><path class="cls-3" d="m168.23,48.18l.1.09c.64-.33,1.18-.8,1.77-1.37l.14.12c-.39.66-1.86,2.15-2.62,2.15-.23,0-.35-.22-.35-.42,0-.22.08-.46.19-.8l1.87-5.97c.07-.39.19-.31-.57-.71l.06-.25,1.67-.73.22.12-2.48,7.78h0Z"/><path class="cls-3" d="m178.8,42.79c.35-1.45.25-1.46-1.17-1.81l.05-.18h4.12l-.05.18c-1.44.14-1.67.85-1.91,1.81l-.24.94-.39,1.54c-.1.4-.33,1.2-.33,1.59,0,1.28,1.07,1.78,2.18,1.78,1.73,0,2.54-1.4,2.91-2.91l.71-2.93c.35-1.46.18-1.48-1.17-1.81l.05-.18h3.51l-.05.18c-1.43.25-1.51.62-1.85,1.96l-.73,2.89c-.47,1.93-1.64,3.35-3.8,3.35-1.28,0-2.78-.64-2.78-2.16,0-.39.1-.81.2-1.18l.74-3.04h0Z"/><path class="cls-3" d="m191.85,45.53c.11-.28.65-1.45.1-1.45-.94,0-3.3,5.1-4.01,5.1-.58,0-.06-1.2.02-1.42l1.32-3.48c-.76.1-1.23.81-1.65,1.4l-.13-.09c.22-.83.99-2.04,1.96-2.04.31,0,.63.13.74.44l-1.35,3.56.02.02.57-.9c.53-.81,1.89-3.12,2.93-3.12,1.1,0,.58,1.49.36,2.06l-.98,2.6.04.06c.65-.4,1.24-.92,1.77-1.48l.13.13c-.45.69-1.8,2.25-2.64,2.25-.59,0-.22-.92-.11-1.18l.92-2.47h0Z"/><path class="cls-3" d="m198.65,46.78c-.53.59-1.13,1.14-1.8,1.55l-.09-.04c.59-1.63,1.57-3.64,1.57-4.33,0-.24-.13-.41-.39-.41-.78,0-1.87,1.19-2.25,2.04l.15.09c.34-.45.99-1.04,1.5-1.32l.08.08c-.52,1.28-1.56,3.64-1.56,4.27,0,.25.16.46.42.46,1,0,2.04-1.52,2.51-2.3l-.16-.1h0Zm-.23-6.23c-.38,0-.6.3-.6.66,0,.31.24.57.57.57.35,0,.59-.3.59-.64s-.21-.58-.56-.58h0Z"/><path class="cls-3" d="m201.67,49.43l-.27-.25c.33-1.22.65-2.78.65-4.06,0-.29-.01-.82-.42-.82-.3,0-.7.31-.96.46l-.12-.17c.38-.36,1.25-1.03,1.75-1.03.59,0,.59.98.59,1.38,0,1.05-.23,2.26-.45,3.28l-.02.14c1.13-.69,2.33-2.08,2.33-3.48,0-.34-.16-.72-.53-.72-.19,0-.67.29-.85.37l-.11-.17c.36-.27,1.09-.8,1.56-.8.52,0,.77.53.77.98,0,1.58-1.71,2.99-2.8,3.92l-1.15.98h0Z"/><path class="cls-3" d="m210.98,45.07c.18-.12.61-.38.61-.64,0-.43-.68-.87-.98-.87-.7,0-1.96.94-2.3,1.55-.42.8-.8,2.47-.8,3.37,0,.39.42.7.64.7,1.01,0,2.38-1.15,3.01-2.09l-.19-.12c-.42.56-1.68,1.46-2.3,1.46s-.11-1.51-.02-1.81l2.33-1.55h0Zm-2.21,1.1c.1-.42.48-2.09,1.13-2.09.27,0,.74.34.74.64,0,.28-.33.45-.52.58l-1.34.87h0Z"/><path class="cls-3" d="m214.54,47.92l.02.03,1.46-2.63c.3-.5,1.05-1.77,1.69-1.77.34,0,.5.27.5.57,0,.59-.43,1.07-.98,1.2l-.07-.11c.06-.12.31-.73-.01-.73-.46,0-2.22,3.31-2.5,3.86-.14.28-.39.84-.76.84-.62,0-.13-1.03-.05-1.26l1.21-3.68c-.74.12-1.23.81-1.61,1.31l-.16-.1c.33-.76.98-1.9,1.94-1.9.27,0,.56.16.62.44l-1.29,3.93h0Z"/><path class="cls-3" d="m221.47,46.06c.23.48.47.94.47,1.34,0,.81-1.21,1.78-1.99,1.78-.41,0-.98-.24-.98-.73,0-.3.33-.55.62-.55.26.28.56.72.98.72.39,0,.52-.39.52-.74s-.23-.82-.47-1.3c-.24-.48-.48-.98-.48-1.37,0-.94,1.21-1.66,2.07-1.66.29,0,.75.27.75.59,0,.28-.42.48-.64.56-.19-.18-.64-.64-.93-.64s-.4.3-.4.54c0,.46.24.96.48,1.45h0Z"/><path class="cls-3" d="m227.34,46.88c-.47.78-1.51,2.3-2.52,2.3-.27,0-.42-.21-.42-.46,0-.63,1.04-2.99,1.56-4.27l-.09-.08c-.51.28-1.16.87-1.5,1.32l-.14-.09c.38-.86,1.46-2.04,2.25-2.04.25,0,.39.17.39.41,0,.69-.98,2.7-1.57,4.33l.09.04c.68-.41,1.27-.95,1.8-1.55l.16.1h0Zm.17-5.74c0,.34-.24.64-.59.64-.33,0-.57-.25-.57-.57,0-.35.23-.66.61-.66.35,0,.55.24.55.58h0Z"/><path class="cls-3" d="m233.49,43.83l-.18.48h-1.74l-1.2,3.92.09.1c.77-.35,1.4-.95,1.98-1.56l.16.13c-.48.75-1.85,2.27-2.79,2.27-.17,0-.45-.24-.45-.41,0-.11.08-.34.11-.42l1.28-4.03h-1.26l.14-.36,1.28-.2c.18-.41.4-1.32.74-1.32.42,0,.42.11.3.47l-.24.85,1.78.08h0Z"/><path class="cls-3" d="m234.52,46.08c-.02-.63.44-2.53,1.24-2.53,1.06,0,1.28,3.51,1.26,4.66l.03.02c.54-1.1.87-2.34.98-3.58.03-.35-.01-1.1.5-1.1.25,0,.4.21.4.44,0,1.02-1.4,3.82-1.95,4.77-.43.75-2.07,3.24-3.08,3.24-.36,0-.59-.28-.59-.63,0-.32.28-.59.59-.59.28,0,.46.28.59.5.74-.4,1.28-1.09,1.72-1.79.17-2.18-.24-4.97-.69-4.97-.31,0-.73,1.39-.81,1.61l-.17-.04h0Z"/><path class="cls-3" d="m80.34,27.88c0-2.36-.08-2.71-1.8-2.86v-.22l3.76-.12c3.88-.12,4.19,1.77,4.19,2.51,0,1.29-.8,2.03-1.91,2.53l.08.11c1.19,2.08,2.67,4.73,5.21,5.25l-.05.23c-1.63-.08-2.83-.03-3.73-.96-1.02-1.06-1.82-2.42-2.14-3.08-.62-1.28-1.17-.91-2.25-1.09v2.48c0,1.7.03,2,2.14,2.3v.23h-5.41v-.23c1.85-.25,1.86-.71,1.91-2.3v-4.77h0Zm1.35,2.03c1.48-.02,3.2-.69,3.2-2.4,0-1.8-1.59-2.53-3.2-2.51v4.91h0Z"/><path class="cls-3" d="m91.76,33.16c.04,1.27.05,1.64,1.53,1.84v.18h-4.14v-.18c1.48-.2,1.49-.57,1.53-1.84v-4.34c-.04-1.27-.05-1.64-1.53-1.84v-.18h4.14v.18c-1.48.2-1.49.56-1.53,1.84v4.34h0Z"/><path class="cls-3" d="m102.76,34.23v.18c-1.32.56-2.33.91-3.72.91-2.54,0-4.69-1.54-4.69-4.24s2.39-4.44,4.97-4.44c.97,0,1.96.17,2.88.48l-.05,2.14h-.16c-.31-1.43-1.29-2.33-2.78-2.33-2.13,0-3.42,1.63-3.42,3.69,0,2.44,1.74,4.28,4.19,4.28,1.12,0,1.11-.3,1.11-1.1v-.74c0-1.37-.36-1.52-1.66-1.68v-.19h3.65v.19c-.86.17-.9.52-.9,1.28v1.55h.6Z"/><path class="cls-3" d="m105.71,31.67c-.21.62-.75,1.9-.75,2.49,0,.75.85.75,1.4.84v.18h-3.38v-.18c1.09-.3,1.2-.54,1.59-1.5l1.39-3.64.74-2.01c.11-.32.27-.62.14-.85.33-.13.64-.36.9-.67l2.71,7.22c.33.9.54,1.26,1.53,1.44v.18h-3.62v-.18c.43-.1.95-.23.95-.79,0-.52-.47-1.68-.79-2.54h-2.81Zm1.37-3.77l-1.16,3.2h2.44l-1.28-3.2h0Z"/><path class="cls-3" d="m121.73,29.65c1.4.32,3.42.97,3.42,2.79,0,2.85-3.68,2.79-4.45,2.77l-4.24-.03v-.23c1.85-.25,1.87-.71,1.91-2.3v-5.34c-.05-1.59-.06-2.05-1.82-2.28v-.23l3.13-.12c1.72-.06,4.77.11,4.77,2.54,0,1.51-1.51,2.09-2.73,2.4v.03h0Zm-2-.01c1.43-.02,3.2-.4,3.2-2.19s-1.63-2.42-3.2-2.42v4.61h0Zm0,2.88c0,1.2-.08,2.34,1.5,2.34,1.34,0,2.28-.88,2.28-2.24,0-.94-.88-2.8-3.17-2.69l-.6.03v2.56h0Z"/><path class="cls-3" d="m136.24,26.8v.18c-1.12.12-1.2.81-1.25,2.44l-.07,2.7c-.04,1.59-.71,3.2-3.45,3.2-3.82,0-3.43-2.76-3.43-3.75v-2.76c-.04-1.27-.05-1.64-1.53-1.84v-.18h4.25v.18c-1.61.23-1.64.48-1.64,1.84v2.53c0,.23-.4,3.41,2.98,3.41,2.66,0,2.4-2.54,2.4-4.04v-1.29c0-1.56-.12-2.28-1.85-2.44v-.18h3.57Z"/><path class="cls-3" d="m141.81,28.97h-.2c-.19-1-.52-1.96-1.74-1.96-.79,0-1.44.54-1.44,1.36,0,2.13,3.88,2.06,3.88,4.54,0,1.59-1.58,2.42-3,2.42-.75,0-1.54-.22-2.17-.63l-.36-2.1h.22c.31,1.18,1.13,2.36,2.49,2.36.91,0,1.63-.54,1.63-1.51,0-2.19-3.77-1.99-3.77-4.46,0-1.44,1.43-2.36,2.74-2.36.63,0,1.26.19,1.8.48l-.1,1.85h0Z"/><path class="cls-3" d="m145.92,33.16c.04,1.27.05,1.64,1.53,1.84v.18h-4.14v-.18c1.48-.2,1.49-.57,1.53-1.84v-4.34c-.04-1.27-.05-1.64-1.53-1.84v-.18h4.14v.18c-1.48.2-1.49.56-1.53,1.84v4.34h0Z"/><path class="cls-3" d="m156.16,33.25l-.06-4.5c-.01-1.17-.34-1.52-1.73-1.76v-.18h3.36v.18c-.85.11-1.01.58-1.11,1.38-.17,1.35-.11,4.33-.05,7.01l-.16.04c-1.97-2.33-4.17-4.49-6.25-6.73v2.27c0,3.06-.07,3.69,1.71,4.04v.18h-3.68v-.18c1.66-.17,1.6-1.31,1.6-4.11v-1.85c0-1.23-.2-1.71-1.76-2.06v-.18h2.03l6.09,6.44h0Z"/><path class="cls-3" d="m158.33,35c1.48-.2,1.49-.57,1.53-1.84v-4.34c-.03-1.27-.05-1.64-1.53-1.84v-.18h6.62l-.15,1.9h-.18c-.09-1.59-1.23-1.6-2.48-1.6h-1.2v3.51h1.28c.92,0,1.63-.07,1.76-1.14h.19v2.75h-.19c-.16-1.09-.84-1.1-1.76-1.1h-1.28v2.02c0,.73-.17,1.74,1.85,1.74,1.55,0,2.32-.59,2.62-2.14h.19c-.01.94-.17,1.7-.42,2.44h-6.85v-.18h0Z"/><path class="cls-3" d="m171.39,28.97h-.2c-.2-1-.52-1.96-1.74-1.96-.79,0-1.44.54-1.44,1.36,0,2.13,3.88,2.06,3.88,4.54,0,1.59-1.58,2.42-3,2.42-.75,0-1.54-.22-2.17-.63l-.36-2.1h.22c.31,1.18,1.14,2.36,2.49,2.36.91,0,1.63-.54,1.63-1.51,0-2.19-3.77-1.99-3.77-4.46,0-1.44,1.43-2.36,2.75-2.36.63,0,1.26.19,1.8.48l-.1,1.85h0Z"/><path class="cls-3" d="m177.8,28.97h-.2c-.2-1-.52-1.96-1.74-1.96-.79,0-1.44.54-1.44,1.36,0,2.13,3.88,2.06,3.88,4.54,0,1.59-1.58,2.42-2.99,2.42-.75,0-1.54-.22-2.17-.63l-.36-2.1h.22c.31,1.18,1.13,2.36,2.49,2.36.91,0,1.63-.54,1.63-1.51,0-2.19-3.77-1.99-3.77-4.46,0-1.44,1.43-2.36,2.75-2.36.63,0,1.26.19,1.8.48l-.1,1.85h0Z"/><path class="cls-3" d="m189.85,27.41h-.24c-.25-1.25-.65-2.45-2.17-2.45-.99,0-1.8.68-1.8,1.69,0,2.67,4.85,2.57,4.85,5.68,0,1.99-1.97,3.02-3.74,3.02-.94,0-1.93-.28-2.71-.79l-.45-2.62h.28c.38,1.48,1.42,2.94,3.11,2.94,1.14,0,2.03-.68,2.03-1.88,0-2.74-4.71-2.49-4.71-5.58,0-1.8,1.79-2.94,3.43-2.94.79,0,1.57.23,2.25.6l-.12,2.31h0Z"/><path class="cls-3" d="m199.55,29.34h-.18c-.23-1.39-1.05-2.39-2.53-2.39-2.26,0-3.52,1.85-3.52,3.97,0,2.43,1.86,4.11,3.65,4.11,1.61,0,2.25-1.18,2.81-2.51l.17.07c-.15.75-.38,1.49-.68,2.21-.79.38-1.64.53-2.51.53-2.58,0-4.87-1.48-4.87-4.26,0-2.2,1.71-4.41,4.97-4.41.94,0,1.88.19,2.7.67v2.02h0Z"/><path class="cls-3" d="m203.28,33.16c0,1.36.02,1.6,1.64,1.84v.18h-4.25v-.18c1.48-.2,1.49-.57,1.53-1.84v-4.34c-.04-1.27-.05-1.64-1.53-1.84v-.18h4.25v.18c-1.62.23-1.64.48-1.64,1.84v1.79h4.95v-1.79c0-1.36-.02-1.6-1.64-1.84v-.18h4.25v.18c-1.48.2-1.49.56-1.53,1.84v4.34c.04,1.27.05,1.64,1.53,1.84v.18h-4.25v-.18c1.62-.23,1.64-.48,1.64-1.84v-2.03h-4.95v2.03h0Z"/><path class="cls-3" d="m220.87,30.99c0,2.65-1.92,4.34-4.51,4.34s-4.51-1.69-4.51-4.35,1.92-4.32,4.5-4.32c3.15,0,4.52,2.14,4.52,4.34h0Zm-7.59-.31c0,1.91,1.01,4.35,3.23,4.35,2.03,0,2.93-2.07,2.93-3.83-.04-2.18-1.31-4.25-3.19-4.25-2.12,0-2.97,2.07-2.97,3.73h0Z"/><path class="cls-3" d="m231.22,30.99c0,2.65-1.92,4.34-4.51,4.34s-4.51-1.69-4.51-4.35,1.92-4.32,4.5-4.32c3.16,0,4.52,2.14,4.52,4.34h0Zm-7.59-.31c0,1.91,1.01,4.35,3.23,4.35,2.03,0,2.93-2.07,2.93-3.83-.04-2.18-1.3-4.25-3.19-4.25-2.12,0-2.97,2.07-2.97,3.73h0Z"/><path class="cls-3" d="m232.27,35c1.48-.2,1.49-.57,1.53-1.84v-4.34c-.04-1.27-.05-1.64-1.53-1.84v-.18h4.14v.18c-1.48.2-1.53.56-1.53,1.84v4.04c0,.62,0,1.27.18,1.86l1.5.11c1.87.14,2.18-.44,3.13-2.02l.16.07-.7,2.29h-6.89v-.18h0Z"/><path class="cls-3" d="m136.24,26.8v.18c-1.12.12-1.2.81-1.25,2.44l-.07,2.7c-.04,1.59-.71,3.2-3.45,3.2-3.82,0-3.43-2.76-3.43-3.75v-2.76c-.04-1.27-.05-1.64-1.53-1.84v-.18h4.25v.18c-1.61.23-1.64.48-1.64,1.84v2.53c0,.23-.4,3.41,2.98,3.41,2.66,0,2.4-2.54,2.4-4.04v-1.29c0-1.56-.12-2.28-1.85-2.44v-.18h3.57Z"/><path class="cls-3" d="m141.81,28.97h-.2c-.19-1-.52-1.96-1.74-1.96-.79,0-1.44.54-1.44,1.36,0,2.13,3.88,2.06,3.88,4.54,0,1.59-1.58,2.42-3,2.42-.75,0-1.54-.22-2.17-.63l-.36-2.1h.22c.31,1.18,1.13,2.36,2.49,2.36.91,0,1.63-.54,1.63-1.51,0-2.19-3.77-1.99-3.77-4.46,0-1.44,1.43-2.36,2.74-2.36.63,0,1.26.19,1.8.48l-.1,1.85h0Z"/><path class="cls-3" d="m145.92,33.16c.04,1.27.05,1.64,1.53,1.84v.18h-4.14v-.18c1.48-.2,1.49-.57,1.53-1.84v-4.34c-.04-1.27-.05-1.64-1.53-1.84v-.18h4.14v.18c-1.48.2-1.49.56-1.53,1.84v4.34h0Z"/><path class="cls-3" d="m156.16,33.25l-.06-4.5c-.01-1.17-.34-1.52-1.73-1.76v-.18h3.36v.18c-.85.11-1.01.58-1.11,1.38-.17,1.35-.11,4.33-.05,7.01l-.16.04c-1.97-2.33-4.17-4.49-6.25-6.73v2.27c0,3.06-.07,3.69,1.71,4.04v.18h-3.68v-.18c1.66-.17,1.6-1.31,1.6-4.11v-1.85c0-1.23-.2-1.71-1.76-2.06v-.18h2.03l6.09,6.44h0Z"/><path class="cls-3" d="m158.33,35c1.48-.2,1.49-.57,1.53-1.84v-4.34c-.03-1.27-.05-1.64-1.53-1.84v-.18h6.62l-.15,1.9h-.18c-.09-1.59-1.23-1.6-2.48-1.6h-1.2v3.51h1.28c.92,0,1.63-.07,1.76-1.14h.19v2.75h-.19c-.16-1.09-.84-1.1-1.76-1.1h-1.28v2.02c0,.73-.17,1.74,1.85,1.74,1.55,0,2.32-.59,2.62-2.14h.19c-.01.94-.17,1.7-.42,2.44h-6.85v-.18h0Z"/><path class="cls-3" d="m171.39,28.97h-.2c-.2-1-.52-1.96-1.74-1.96-.79,0-1.44.54-1.44,1.36,0,2.13,3.88,2.06,3.88,4.54,0,1.59-1.58,2.42-3,2.42-.75,0-1.54-.22-2.17-.63l-.36-2.1h.22c.31,1.18,1.14,2.36,2.49,2.36.91,0,1.63-.54,1.63-1.51,0-2.19-3.77-1.99-3.77-4.46,0-1.44,1.43-2.36,2.75-2.36.63,0,1.26.19,1.8.48l-.1,1.85h0Z"/><path class="cls-3" d="m177.8,28.97h-.2c-.2-1-.52-1.96-1.74-1.96-.79,0-1.44.54-1.44,1.36,0,2.13,3.88,2.06,3.88,4.54,0,1.59-1.58,2.42-2.99,2.42-.75,0-1.54-.22-2.17-.63l-.36-2.1h.22c.31,1.18,1.13,2.36,2.49,2.36.91,0,1.63-.54,1.63-1.51,0-2.19-3.77-1.99-3.77-4.46,0-1.44,1.43-2.36,2.75-2.36.63,0,1.26.19,1.8.48l-.1,1.85h0Z"/><path class="cls-3" d="m199.55,29.34h-.18c-.23-1.39-1.05-2.39-2.53-2.39-2.26,0-3.52,1.85-3.52,3.97,0,2.43,1.86,4.11,3.65,4.11,1.61,0,2.25-1.18,2.81-2.51l.17.07c-.15.75-.38,1.49-.68,2.21-.79.38-1.64.53-2.51.53-2.58,0-4.87-1.48-4.87-4.26,0-2.2,1.71-4.41,4.97-4.41.94,0,1.88.19,2.7.67v2.02h0Z"/><path class="cls-3" d="m203.28,33.16c0,1.36.02,1.6,1.64,1.84v.18h-4.25v-.18c1.48-.2,1.49-.57,1.53-1.84v-4.34c-.04-1.27-.05-1.64-1.53-1.84v-.18h4.25v.18c-1.62.23-1.64.48-1.64,1.84v1.79h4.95v-1.79c0-1.36-.02-1.6-1.64-1.84v-.18h4.25v.18c-1.48.2-1.49.56-1.53,1.84v4.34c.04,1.27.05,1.64,1.53,1.84v.18h-4.25v-.18c1.62-.23,1.64-.48,1.64-1.84v-2.03h-4.95v2.03h0Z"/><path class="cls-3" d="m220.87,30.99c0,2.65-1.92,4.34-4.51,4.34s-4.51-1.69-4.51-4.35,1.92-4.32,4.5-4.32c3.15,0,4.52,2.14,4.52,4.34h0Zm-7.59-.31c0,1.91,1.01,4.35,3.23,4.35,2.03,0,2.93-2.07,2.93-3.83-.04-2.18-1.31-4.25-3.19-4.25-2.12,0-2.97,2.07-2.97,3.73h0Z"/><path class="cls-3" d="m231.22,30.99c0,2.65-1.92,4.34-4.51,4.34s-4.51-1.69-4.51-4.35,1.92-4.32,4.5-4.32c3.16,0,4.52,2.14,4.52,4.34h0Zm-7.59-.31c0,1.91,1.01,4.35,3.23,4.35,2.03,0,2.93-2.07,2.93-3.83-.04-2.18-1.3-4.25-3.19-4.25-2.12,0-2.97,2.07-2.97,3.73h0Z"/><path class="cls-3" d="m232.27,35c1.48-.2,1.49-.57,1.53-1.84v-4.34c-.04-1.27-.05-1.64-1.53-1.84v-.18h4.14v.18c-1.48.2-1.53.56-1.53,1.84v4.04c0,.62,0,1.27.18,1.86l1.5.11c1.87.14,2.18-.44,3.13-2.02l.16.07-.7,2.29h-6.89v-.18h0Z"/><path class="cls-3" d="m61.89,30.46c-1.1-.54-3.64-2.11-4.19-2.61-.66-.6-1.15-1.29-1.52-2.02,0-.02-.01-.04-.02-.06-.95-1.96-.83-4.19.54-5.68,1.88-2.06,5.5-2.18,7.89.09,1.57,1.49,2.11,4.08,2.25,6.57h1.09l.43-8.12-.49-.27c-2.23-1.22-4.64-1.86-6.98-1.86-5.24,0-11.07,3.62-11.07,9.45,0,5.14,4.22,7.42,7.79,9.44,3.28,1.85,5.83,3.46,6.11,6.81.25,2.96-1.31,5.61-4.99,5.61-5.24,0-7.23-5.09-8.24-8.89-.74-2.88-3.65-5.27-7.75-6.67,2.63-1.03,5.78-3,5.78-6.97,0-2.1-.71-3.85-2.1-5.19-2.36-2.28-6.64-3.32-12.73-3.1,0,0-9.96.39-9.96.39v.75l.77.1c4.37.57,4.39,2.73,4.53,7.35v20.98c-.2-.13-.72-.38-.72-.38-5.94-3.2-3.68-8.92-8.29-13.32,3.44-1.8,5.43-4.27,5.43-7.64,0-2.07-.97-3.92-2.38-5.28-2.18-2.11-5.87-3.1-10.96-2.94l-11.81.39v.74l.81.07c4.28.38,4.44,2.22,4.44,9.02v13.91c-.13,4.5-.15,6.68-4.79,7.3l-.77.1v.84h17.52v-.84l-.77-.11c-5.47-.76-5.47-2.54-5.47-7.31v-7.17c.55.06,1.11.11,1.11.11,1.8.1,2.63,1.05,3.76,3.4.8,1.65,2.47,4.49,4.54,7.08,2.59,3.27,8.18,5.38,14.24,5.38s11.32-2.13,13.93-5.29c.19,1.12.45,2.63.45,2.63l.33.21c2.39,1.54,5.44,2.43,8.38,2.43,5.72,0,12.49-3.29,12.49-9.58,0-5.22-4.78-8-8.63-9.88h0Zm-50.6,1.75v-13.17c3.15.2,7.71-.41,7.56,7.11-.1,4.87-4.4,5.8-7.56,6.06h0Zm23.48-13.03c3.9,0,7.58,1.36,7.56,6.79,0,2.72-1.61,4.39-4.91,5.11-.34-.02-2.48-.13-2.48-.13,0,0-.12,0-.18,0v-11.78h0Zm.5,28.34s-.26-.02-.5-.03v-14.29c.24-.01.5-.03.5-.03,4.88,0,8.78,3.16,8.84,7.17.07,4.23-3.97,7.18-8.84,7.18h0Z"/><text class="cls-1" transform="translate(398.85 15.56)"><tspan x="0" y="0">In cooperation with:</tspan></text><line class="cls-2" x1="268.97" x2="268.97" y2="65.7"/><polygon points="326.76 6.42 327.68 6.42 327.68 1.35 326.13 1.35 326.13 2.22 326.76 2.22 326.76 6.42"/><path d="m328.64,4.85c0,.96.73,1.69,1.69,1.69.9,0,1.68-.73,1.68-1.64,0-.58-.23-1.05-.73-1.3.29-.27.41-.56.41-.95,0-.77-.6-1.39-1.37-1.39s-1.34.64-1.34,1.41c0,.42.12.64.41.93-.47.18-.75.73-.75,1.25m1.7-2.7c.29,0,.53.23.53.52s-.24.53-.53.53-.53-.24-.54-.53c0-.29.25-.52.54-.52m-.01,1.95c.43,0,.77.34.77.8,0,.43-.35.76-.77.76s-.77-.34-.77-.76c0-.45.35-.8.77-.8"/><path d="m334.35,6.54c.99,0,1.75-.82,1.75-1.8,0-.48-.14-.88-.45-1.21-.27-.29-.65-.48-1.05-.48l-.25.02,1.13-1.72h-1.08l-1.45,2.21c-.23.34-.37.73-.37,1.17,0,1,.74,1.81,1.76,1.81m-.01-2.65c.48,0,.85.41.85.9s-.37.86-.84.86c-.5,0-.84-.41-.84-.9s.37-.86.84-.86"/><path d="m338.28,2.15c.42,0,.73.32.73.74,0,.45-.31.75-.62,1.04l-1.75,1.62v.86h3.28v-.86h-2l.97-.86.64-.67c.25-.32.4-.68.4-1.09,0-.96-.74-1.67-1.69-1.67-.9,0-1.64.75-1.64,1.66v.19h.91c-.03-.5.24-.95.78-.95"/><path d="m336.76,29.63l.6-2.01-1.23-5.35,4.71-4.71h-5.79l-.6-2.61c.24-.3.39-.68.39-1.09,0-.98-.82-1.78-1.82-1.78s-1.82.8-1.82,1.78c0,.41.15.79.39,1.09l-.6,2.61h-5.79l4.71,4.71-1.23,5.35.6,2.01,1.49-6.5,2.25,2.25,2.25-2.25,1.49,6.5Zm1.59-11.04l-2.49,2.49-.57-2.49h3.07Zm-8.17,2.49l-2.49-2.49h3.07l-.57,2.49Zm2.84-8c.44,0,.8.35.8.78s-.36.78-.8.78-.8-.35-.8-.78.36-.78.8-.78m-.51,2.47c.16.05.33.08.51.08s.35-.03.51-.08l.46,2h-1.94l.46-2Zm.51,8.37l-1.98-1.98.77-3.36h2.41l.77,3.36-1.98,1.98Z"/><path d="m306.88,33.84h-1.68l1.19-.76h4.57s0-4.6,0-4.6l3.72,1.63v5.48h2.13s1.44,1.44,1.44,1.44h5.02v-3.19s-2.87,0-2.87,0l-.44-1.86,1.2-3.41-4.18-4.18h-4.4s3.52-2.24,3.52-2.24l7.28,1.64v6.67l9.62,5.34,9.62-5.34v-6.67l7.28-1.64,3.52,2.24h-4.4s-4.18,4.18-4.18,4.18l1.2,3.41-.44,1.86h-2.87v3.19h5.02l1.44-1.44h2.13s0-5.47,0-5.47l3.72-1.63v4.6h4.57s1.19.76,1.19.76h-1.68v3.19h6.15v-7.43h-5.09v-2.07c.24.08.51.13.78.13,1.34,0,2.42-1.09,2.42-2.42,0-.6-.22-1.15-.58-1.58h0c-.36-.45-2.9-3.28-2.9-3.28-.45-.51-.71-1.17-.71-1.9,0-.8.32-1.52.84-2.04.39-.39.89-.67,1.46-.79.09-.02.53-.02.54.48,0,.15-.07.28-.18.36h0s-.01.01-.01.01c-.64.43-1.06,1.16-1.06,2,0,1.33,1.08,2.41,2.4,2.41.6,0,1.15-.22,1.58-.59h-.01c-.06,0-.11,0-.18,0-.51,0-.92-.41-.92-.92,0-.24.09-.47.25-.63h0c.38-.38.57-.68.57-.68.19-.34.31-.74.31-1.16,0-.99-.6-1.83-1.46-2.19-.13-.06-.53-.16-.72-.18-.17-.02-.34-.04-.52-.04-2.18,0-3.95,1.77-3.95,3.95,0,.92.32,1.77.85,2.44.02.03,2.67,3.01,3.01,3.42h0s0,.01,0,.01c.21.24.33.55.34.89,0,.38-.15.71-.4.96-.25.25-.58.4-.96.4-.49,0-.92-.26-1.16-.66h0s-3.29-6.4-3.29-6.4c.37-.57.59-1.26.58-1.99,0-1.05-.44-2-1.15-2.67.64-.08,1.14-.61,1.14-1.27h0v-.72c.01-.14-.04-.27-.14-.37-.1-.1-.23-.15-.37-.15h-1.24c-.14,0-.26-.12-.26-.26s.11-.26.26-.26h2.41c.78,0,1.42-.64,1.42-1.42v-1.59h-5.72c.11-.26.17-.56.17-.86,0-1.24-1-2.24-2.24-2.24-.28,0-.51.23-.52.51,0,.2,0,.46,0,.75,0,.59,0,1.3,0,1.84-.28,0-.69,0-.69,0-3.47.13-6.25,2.99-6.25,6.49,0,.78.14,1.52.39,2.21h-1.7v-8.7h-19.24v8.7h-1.7c.25-.69.39-1.43.39-2.21,0-3.51-2.78-6.36-6.25-6.49,0,0-.41,0-.69,0,0-.55,0-1.25,0-1.84,0-.29,0-.55,0-.75,0-.28-.23-.51-.52-.51-1.24,0-2.24,1-2.24,2.24,0,.3.06.59.17.86h-5.72v1.59c0,.78.63,1.42,1.41,1.42h2.41c.14,0,.26.12.26.26s-.11.26-.26.26h-1.24c-.14,0-.27.06-.37.15-.1.1-.15.23-.15.37v.72h0c0,.66.5,1.2,1.14,1.27-.71.67-1.15,1.62-1.15,2.67,0,.73.22,1.42.58,1.99l-3.29,6.39h0c-.24.4-.67.66-1.16.66-.38,0-.71-.15-.96-.4-.25-.25-.4-.58-.4-.96,0-.34.13-.65.34-.89h0s0-.01,0-.01c.33-.41,2.99-3.38,3.01-3.42.53-.67.85-1.52.85-2.44,0-2.18-1.77-3.95-3.95-3.95-.18,0-.35.01-.52.04-.18.02-.59.11-.72.18-.86.36-1.46,1.21-1.46,2.19,0,.42.11.82.31,1.16,0,0,.19.31.57.67h0c.15.17.25.4.25.64,0,.51-.41.92-.92.92-.07,0-.11,0-.18-.01h-.01c.42.37.97.6,1.58.6,1.33,0,2.41-1.08,2.41-2.41,0-.83-.42-1.56-1.06-2h-.01s0-.01,0-.01c-.11-.09-.18-.22-.18-.36,0-.5.44-.5.54-.48.56.12,1.06.39,1.46.79.52.52.84,1.24.84,2.04,0,.73-.27,1.39-.71,1.9,0,0-2.53,2.84-2.9,3.28h0c-.36.43-.59.98-.58,1.58,0,1.34,1.08,2.42,2.42,2.42.27,0,.54-.05.78-.13v2.07h-5.09v7.43h6.15v-3.19Zm55.54-16.41l.03-.02c.41-.27.68-.75.68-1.28,0-.11-.01-.22-.04-.32.09.06.18.12.26.19.24.24.39.57.39.93,0,.41-.18.77-.48,1.01h0c-.48.42-.69.67-.73,1.17-.02.23.05.45.16.63-.16-.07-.31-.16-.44-.29-.24-.24-.39-.58-.39-.95,0-.45.22-.85.56-1.09m-7.35,9.89l-4.79,2.1v5.11h-1.46s-1.44,1.44-1.44,1.44h-3.56v-1.06h2.65l.7-2.97-1.09-3.07v-.04s3.36-3.37,3.36-3.37h5.64v1.87Zm4.08-.36v3.71h5.09v5.3h-4.02v-1.06h2.6v-1.06l-2.87-1.82h-3.81v-7.16l-4.76-3.03c.95-.22,1.78-.41,2.35-.55.4-.09.85-.21.85-.21.45-.14.85-.37,1.21-.66l3.37,6.56Zm-7.23-20.07c.13.06.24.14.34.24.22.22.36.52.36.86,0,.34-.14.64-.36.86-.1.1-.22.18-.34.24,0-.57,0-2.19,0-2.19m-.2,3.57c.34-.34.79-.55,1.29-.58h5.16v.56s0,0,0,0c0,.21-.17.39-.39.39h-2.44c-.33.02-.63.16-.86.38-.24.23-.39.56-.39.93,0,.32.12.65.35.88.19.19.45.31.72.36.12,0,.11.01.18,0h.76s0,.23,0,.23c0,.15-.12.27-.27.27h0s-2.73,0-2.81,0c-.51-.03-.96-.25-1.29-.58-.36-.36-.59-.86-.59-1.42,0-.56.22-1.05.59-1.42m-1.44.42c-.11.31-.17.65-.17,1,0,1.57,1.19,2.86,2.72,3.02.03,0,.07.01.11.01.02,0,.48,0,.6,0,.7.02,1.33.31,1.79.77.48.48.78,1.14.78,1.88,0,.59-.19,1.13-.52,1.58-.32.44-.78.77-1.3.94-.58.19-1.28.24-1.52.24-1.39,0-2.65-.56-3.57-1.48-.91-.91-1.48-2.17-1.48-3.57,0-1.18.4-2.25,1.07-3.11.41-.52.91-.95,1.48-1.27m-3.69.6c.87-.87,2.03-1.45,3.32-1.57-.75.4-1.41.95-1.93,1.61-.81,1.03-1.3,2.34-1.3,3.75,0,1.58.6,3.01,1.59,4.09l-.02-.02-1.2.27s-.36-.3-.47-.4c-.99-.99-1.6-2.35-1.6-3.87,0-1.51.61-2.88,1.6-3.87m-3.95,7.07h2.16c.28.49.62.94,1.01,1.34l-3.17.71v-2.05Zm0,3.11l6.56-1.47c.33.24.68.45,1.06.62l.37.13-7.99,1.8v-1.08Zm-18.21-11.78h17.17v19.96l-8.59,4.75h0l-8.59-4.75V9.88Zm-20.25,8.64c0,.37-.15.7-.39.95-.12.12-.27.22-.44.29.11-.18.18-.41.16-.63-.04-.5-.25-.75-.73-1.17h0c-.29-.24-.48-.6-.48-1.01,0-.37.15-.69.39-.93.08-.08.17-.14.26-.19-.02.1-.04.21-.04.32,0,.53.27,1,.68,1.28l.03.02c.34.24.56.64.56,1.09m12.42,6.93l3.37,3.37v.04s-1.1,3.07-1.1,3.07l.7,2.97h2.65v1.06h-3.56l-1.44-1.44h-1.46v-5.11l-4.79-2.1v-1.87h5.64Zm6.8-2.71l-7.99-1.8.37-.13c.37-.17.73-.38,1.06-.62l6.56,1.47v1.08Zm0-4.19v2.05l-3.17-.71c.39-.4.73-.85,1.01-1.34h2.16Zm-3.95-7.07c.99.99,1.6,2.35,1.6,3.87,0,1.51-.61,2.88-1.6,3.87-.11.11-.47.4-.47.4l-1.2-.27-.02.02c.99-1.08,1.59-2.52,1.59-4.09,0-1.41-.48-2.72-1.3-3.75-.52-.66-1.18-1.21-1.93-1.61,1.29.13,2.45.7,3.32,1.57m-5.68-4.35c.1-.1.22-.18.34-.24,0,0,0,1.62,0,2.19-.13-.06-.25-.14-.34-.24-.22-.22-.36-.52-.36-.86,0-.34.14-.64.36-.86m-3.83,6.48v-.23s.76,0,.76,0c.06,0,.06,0,.18,0,.27-.05.53-.16.72-.36.23-.23.35-.56.35-.88,0-.37-.16-.7-.39-.93-.22-.22-.53-.36-.86-.37h0s-2.44,0-2.44,0h0c-.21,0-.38-.17-.39-.39h0s0-.56,0-.56h5.16c.5.03.95.25,1.29.58.36.37.59.86.59,1.42,0,.56-.22,1.05-.59,1.42-.34.34-.79.55-1.29.58-.08,0-2.81,0-2.81,0h0c-.15,0-.27-.12-.27-.27m.77,2.07c.46-.46,1.09-.75,1.79-.77.13,0,.58,0,.6,0,.04,0,.07,0,.11-.01,1.53-.16,2.72-1.45,2.72-3.02,0-.35-.06-.69-.17-1,.57.33,1.08.76,1.48,1.27.67.86,1.07,1.94,1.08,3.11,0,1.39-.56,2.65-1.48,3.57-.91.91-2.17,1.48-3.57,1.48-.24,0-.94-.05-1.52-.24-.52-.17-.98-.51-1.3-.94-.33-.44-.52-.98-.52-1.58,0-.73.3-1.39.78-1.88m-4.9,20.29h-4.02v-5.3h5.09v-3.71l3.37-6.56c.35.29.76.52,1.21.66,0,0,.46.12.85.21.57.14,1.4.33,2.35.55l-4.76,3.03v7.16h-3.81s-2.87,1.83-2.87,1.83v1.06h2.6v1.06Z"/><polygon points="349.33 56.56 351.07 56.56 351.07 61.9 352.28 61.9 352.28 56.56 354.04 56.56 354.04 55.39 349.33 55.39 349.33 56.56"/><polygon points="333.34 56.56 333.34 55.39 329.04 55.39 329.04 61.9 333.34 61.9 333.34 60.73 330.25 60.73 330.25 59.23 332.9 59.23 332.9 58.06 330.25 58.06 330.25 56.56 333.34 56.56"/><polygon points="317.87 55.39 316.66 55.39 316.66 60.15 313.94 55.39 312.59 55.39 312.59 61.9 313.79 61.9 313.79 57.16 316.53 61.9 317.87 61.9 317.87 55.39"/><path d="m345.78,60.03c0-1.17-.72-1.64-1.5-1.83l-1.13-.28c-.52-.14-.96-.35-.96-.81,0-.59.52-.83,1.05-.83.61,0,1.08.19,1.37.69l.81-.81c-.45-.66-1.16-.92-2.08-.92-1.27,0-2.35.72-2.35,1.96,0,1.16.7,1.56,1.58,1.78l1.11.27c.51.15.9.37.9.86,0,.61-.63.87-1.29.87s-1.17-.27-1.47-.76l-.87.87c.51.64,1.37.95,2.3.95,1.45,0,2.53-.8,2.53-2.01"/><path d="m339.68,57.36c0-1.26-.84-1.96-2.37-1.96h-2.37v6.51h1.2v-2.64h.48l.02.02,1.91,2.62h1.45l-2.06-2.69c1.1-.18,1.74-.87,1.74-1.87m-3.54.88v-1.74h1.14c.76,0,1.15.29,1.15.86s-.39.88-1.15.88h-1.14Z"/><path d="m310.95,59.3c0,1.81-1.15,2.73-2.82,2.73s-2.82-.92-2.82-2.73v-3.93h1.31v3.86c0,1.07.61,1.55,1.51,1.55s1.51-.47,1.51-1.55v-3.86h1.31v3.93Z"/><rect x="319.5" y="55.38" width="1.3" height="6.54"/><polygon points="325.59 61.91 324.01 61.91 321.55 55.38 322.94 55.38 324.81 60.59 326.69 55.38 328.05 55.38 325.59 61.91"/><rect x="347" y="55.38" width="1.3" height="6.54"/><polygon points="358.26 59.31 358.26 61.92 356.97 61.92 356.97 59.3 354.48 55.39 356 55.39 357.62 58.13 359.25 55.39 360.72 55.39 358.26 59.31"/><rect x="301.02" y="44.44" width="1.21" height="6.5"/><polygon points="319.83 45.61 321.57 45.61 321.57 50.94 322.77 50.94 322.77 45.61 324.53 45.61 324.53 44.44 319.83 44.44 319.83 45.61"/><polygon points="325.78 50.94 330.07 50.94 330.07 49.76 326.98 49.76 326.98 48.27 329.63 48.27 329.63 47.1 326.98 47.1 326.98 45.61 330.07 45.61 330.07 44.44 325.78 44.44 325.78 50.94"/><polygon points="341.66 47.02 339.04 47.02 339.04 44.42 337.83 44.42 337.83 50.92 339.04 50.92 339.04 48.19 341.66 48.19 341.66 50.92 342.87 50.92 342.87 44.42 341.66 44.42 341.66 47.02"/><polygon points="345.62 46.19 348.35 50.92 349.68 50.92 349.68 44.42 348.48 44.42 348.48 49.17 345.77 44.42 344.42 44.42 344.42 50.92 345.62 50.92 345.62 46.19"/><rect x="351.22" y="44.42" width="1.2" height="6.5"/><path d="m361.97,44.48l-2.2,6.48h1.17l.36-1.06h2.88l.35,1.06h1.17l-2.16-6.48h-1.59Zm-.29,4.3l1.08-3.17,1.06,3.17h-2.14Z"/><path d="m312.76,44.46l-2.2,6.48h1.17l.36-1.06h2.89l.35,1.06h1.17l-2.15-6.48h-1.59Zm-.29,4.3l1.08-3.17,1.06,3.17h-2.14Z"/><path d="m306.79,48.3h2.1c-.1.38-.29.72-.56.98-.4.4-.94.64-1.54.64s-1.14-.24-1.54-.64c-.4-.4-.64-.94-.64-1.54s.24-1.14.64-1.54c.4-.4.94-.64,1.54-.64.64,0,1.21.28,1.61.71l.78-.79c-.6-.64-1.45-1.04-2.39-1.04-1.82,0-3.29,1.47-3.29,3.29,0,1.82,1.47,3.29,3.29,3.29s3.29-1.47,3.29-3.29v-.56h-3.29v1.11Z"/><path d="m299.6,46.39c0-1.26-.84-1.95-2.36-1.95h-2.37v6.5h1.2v-2.63h.48l.02.02,1.91,2.61h1.45l-2.06-2.68c1.09-.18,1.74-.87,1.74-1.86m-3.53.88v-1.74h1.14c.76,0,1.15.29,1.15.86s-.39.88-1.15.88h-1.14Z"/><polygon points="367.74 49.71 367.74 44.42 366.54 44.42 366.54 50.92 371.18 50.92 371.18 49.71 367.74 49.71"/><path d="m336.87,49.65l-.91-.65c-.07.1-.15.2-.24.29-.4.4-.94.64-1.54.64s-1.14-.24-1.54-.64c-.4-.4-.64-.94-.64-1.54s.24-1.14.64-1.54c.4-.4.94-.64,1.54-.64.64,0,1.21.28,1.61.71l.79-.79c-.6-.64-1.45-1.04-2.39-1.04-1.82,0-3.29,1.47-3.29,3.29,0,1.82,1.47,3.29,3.29,3.29,1.11,0,2.09-.55,2.68-1.39"/><path d="m358.27,49.29c-.4.4-.94.64-1.54.64s-1.14-.24-1.54-.64c-.4-.4-.64-.94-.64-1.54s.24-1.14.64-1.54c.39-.4.94-.64,1.54-.64.64,0,1.21.28,1.61.71l.79-.79c-.6-.64-1.45-1.04-2.39-1.04-1.82,0-3.29,1.47-3.29,3.29,0,1.82,1.47,3.29,3.29,3.29,1.11,0,2.09-.55,2.68-1.39l-.91-.65c-.07.1-.15.2-.24.29"/><path d="m464.86,37.37c.1-.02.21-.03.31-.06.22-.06.43-.14.62-.25.82-.45,1.37-1.32,1.37-2.32,0-1.64-1.4-2.65-2.86-2.65h-6.13v-2.63c0-.43.17-.67.61-.67h1.92v-1.52h-8.04v1.52h1.93c.44,0,.61.25.61.67v2.64h-10v1.53h1.83c.43,0,.69.24.69.68v2.42c-3.76,0-4.33-1.66-4.33-3.22v-4.04c0-.43.17-.67.61-.67h1.92v-1.52h-10.05v1.52h1.93c.44,0,.61.25.61.67v3.97c0,3.37,3.56,4.8,9.32,4.8v2.64c0,.44-.27.68-.69.68h-1.84v1.52h19.11c1.56,0,3.03-1.1,3.03-2.83,0-1.1-.63-2.05-1.54-2.52-.19-.1-.4-.18-.62-.23-.1-.02-.2-.04-.31-.06-.05,0-.05-.07,0-.08h0Zm-6.69-3.11v-.64h3.4c.85,0,1.54.69,1.54,1.54s-.69,1.54-1.54,1.54h-4.67c.88-.66,1.27-1.64,1.27-2.45h0Zm-5.51-.64h2.54v.83c0,.96-.61,2.27-2.54,2.27v-3.11h0Zm8.81,7.92h-8.81s0-3.31,0-3.31h8.81c.92,0,1.66.74,1.66,1.66s-.74,1.66-1.66,1.66h0Z"/><path d="m474.2,47.77v.91c.09.03.28.06.48.08l-.47,1.34c-.1.28-.25.65-.3.93h-.02c-.05-.27-.18-.65-.28-.94l-.48-1.33c.17-.02.35-.05.43-.08v-.91h-2.37v.91c.09.03.26.06.47.08l1.42,3.65-.12.32c-.23.6-.47.76-1.35.73l.45,1.16c1.32.02,1.81-.62,2.27-1.77l1.62-4.07c.22-.02.4-.06.51-.08v-.91h-2.25Z"/><path d="m430.09,49.94v-2.85c-.24,0-.5-.05-.63-.08v-.9h2.82v.9c-.13.04-.43.08-.67.08v2.81c0,1,.36,1.45,1.29,1.45.87,0,1.23-.51,1.23-1.39v-2.88c-.24,0-.54-.05-.66-.08v-.9h2.56v.9c-.13.04-.4.08-.62.08v2.7c0,1.76-.83,2.72-2.61,2.72s-2.7-.91-2.7-2.57h0Z"/><path d="m436.06,51.5c.14-.05.45-.09.67-.09v-2.67c-.25-.03-.5-.04-.67-.04v-.91c.35-.04,1.15-.08,2.1-.08l-.04.67h.02c.28-.38.73-.73,1.44-.73,1.02,0,1.4.66,1.4,1.52v2.23c.2,0,.48.06.61.09v.9h-2.05v-2.96c0-.42-.16-.62-.56-.62s-.68.29-.83.49v2.1c.23.02.47.06.58.09v.9h-2.68v-.9h0Z"/><path d="m442.22,51.5c.14-.05.45-.09.67-.09v-2.67c-.25-.03-.5-.04-.67-.04v-.91c.35-.04,1.16-.08,2.17-.08l-.05.75v2.93c.2,0,.49.06.61.09v.9h-2.74v-.9h0Zm.55-5.11c0-.44.35-.81.85-.81s.85.37.85.81-.35.83-.85.83-.85-.39-.85-.83h0Z"/><path d="m445.47,48.75c-.21-.02-.38-.05-.47-.08v-.91h2.37v.91c-.08.03-.26.06-.43.08l.48,1.34c.1.28.24.66.28.92h.02c.05-.26.19-.64.29-.92l.48-1.34c-.2-.02-.4-.05-.48-.08v-.91h2.25v.91c-.11.03-.29.07-.51.09l-1.44,3.63h-1.43l-1.41-3.64h0Z"/><path d="m450.5,50.16c0-1.58.97-2.5,2.42-2.5,1.35,0,2.01.88,2.01,2.16,0,.15,0,.45-.03.62h-2.87c.04.64.43,1.06,1.12,1.06.58,0,.92-.16,1.16-.3l.43.86c-.33.2-.86.45-1.8.45-1.55,0-2.45-.87-2.45-2.35h0Zm3.04-.6c0-.55-.2-.96-.69-.96-.52,0-.79.37-.84.96h1.53Z"/><path d="m455.57,51.5c.14-.05.45-.09.67-.09v-2.67c-.25-.03-.5-.04-.67-.04v-.91c.35-.04,1.17-.08,2.12-.08l-.06.78h.02c.19-.38.62-.84,1.17-.84.36,0,.56.08.67.14l-.33,1.23c-.09-.06-.25-.13-.52-.13-.51,0-.84.38-.97.59v1.91c.23,0,.62.05.75.09v.9h-2.86v-.9h0Z"/><path d="m459.96,52.17v-1.26h.99s.05.42.05.5c.24.06.5.1.76.1.49,0,.74-.13.74-.39,0-.32-.45-.4-.97-.53-.71-.17-1.53-.43-1.53-1.5,0-.93.7-1.43,1.92-1.43.81,0,1.52.18,1.74.31v1.25h-1c-.02-.09-.04-.3-.06-.48-.21-.05-.43-.08-.64-.08-.47,0-.7.11-.7.38,0,.32.51.39,1.08.53.7.17,1.47.43,1.47,1.42s-.82,1.54-2.06,1.54c-.77,0-1.5-.16-1.8-.34h0Z"/><path d="m464.52,51.5c.14-.05.45-.09.67-.09v-2.67c-.25-.03-.5-.04-.67-.04v-.91c.35-.04,1.16-.08,2.17-.08l-.05.75v2.93c.2,0,.49.06.61.09v.9h-2.74v-.9h0Zm.55-5.11c0-.44.35-.81.85-.81s.85.37.85.81-.35.83-.85.83-.85-.39-.85-.83h0Z"/><path d="m470.49,51.25c-.11.05-.29.12-.5.12-.32,0-.47-.18-.47-.63v-1.91h1.13v-1.06h-1.13v-1.33h-1.42v1.33h-.7v1.06h.7v2.17c0,.92.38,1.51,1.57,1.51.59,0,1.01-.15,1.22-.26l-.38-.99h0Z"/><path d="m432.05,60.72c0-1.16,1.12-1.62,2.47-1.62h.15v-.28c0-.37-.18-.54-.71-.54s-.96.25-1.19.42l-.58-.83c.34-.31,1-.68,1.93-.68,1.35,0,1.97.5,1.97,1.76v1.57c0,.17,0,.32,0,.46.24.02.44.03.57.03v.92c-.32.03-.99.06-1.85.06-.04-.11-.07-.36-.08-.54h-.02c-.21.27-.64.59-1.26.59-.78,0-1.42-.47-1.42-1.32h0Zm2.62,0v-.82h-.15c-.68,0-1.11.19-1.11.67,0,.33.25.47.53.47.36,0,.58-.15.74-.32h0Z"/><path d="m437.47,60.53v-2.17h-.7v-1.06h.7v-1.33h1.42v1.33h1.13v1.06h-1.13v1.91c0,.45.15.63.47.63.27,0,.49-.11.58-.16l.3,1.03c-.21.11-.62.26-1.22.26-1.19,0-1.57-.59-1.57-1.51h0Z"/><path d="m442.7,61.03c.16-.05.53-.09.75-.09v-4.3c-.23,0-.6-.05-.75-.09v-.9h3.09c1.16,0,2.21.36,2.21,1.56,0,.87-.5,1.29-1.18,1.46v.02c.74.11,1.43.58,1.43,1.5,0,1.27-1.06,1.74-2.49,1.74h-3.07v-.9h0Zm2.25-2.8h.63c.64,0,.92-.25.92-.77s-.29-.75-.88-.75h-.67v1.52h0Zm0,2.62h.74c.68,0,1.02-.24,1.02-.81s-.3-.82-.96-.82h-.79v1.63h0Z"/><path d="m449.16,60.53v-2.26c-.25-.03-.42-.04-.58-.04v-.91c.35-.04,1.1-.08,2.08-.08l-.05.75v2.26c0,.42.15.62.55.62s.68-.29.83-.49v-2.13c-.25-.03-.46-.04-.63-.04v-.91c.35-.04,1.15-.08,2.11-.08l-.05.75v2.55c0,.16,0,.3,0,.43.24.02.47.03.6.03v.92c-.32.03-1.01.06-1.89.06-.05-.14-.09-.52-.1-.7h-.02c-.29.38-.71.75-1.46.75-1.02,0-1.4-.65-1.4-1.51h0Z"/><path d="m461.27,60.72c0-1.16,1.12-1.62,2.47-1.62h.15v-.28c0-.37-.18-.54-.71-.54s-.96.25-1.19.42l-.58-.83c.34-.31,1-.68,1.93-.68,1.35,0,1.97.5,1.97,1.76v1.57c0,.17,0,.32,0,.46.24.02.43.03.43.03v.92c-.32.03-.86.06-1.71.06-.04-.11-.07-.36-.08-.54h-.02c-.21.27-.64.59-1.26.59-.78,0-1.42-.47-1.42-1.32h0Zm2.62,0v-.82h-.15c-.68,0-1.11.19-1.11.67,0,.33.25.47.53.47.36,0,.58-.15.74-.32h0Z"/><path d="m466.28,61.03c.15-.04.4-.09.59-.09v-4.81c-.25-.03-.49-.05-.66-.05v-.9c.35-.04,1.16-.08,2.15-.08l-.06.75v5.07c.2,0,.49.06.61.09v.9h-2.64v-.9h0Z"/><path d="m469.12,59.65c0-1.22.75-2.45,2.37-2.45s2.38,1.15,2.38,2.4-.75,2.45-2.38,2.45-2.37-1.16-2.37-2.4h0Zm3.22,0c0-.82-.22-1.41-.87-1.41s-.83.55-.83,1.36.23,1.41.87,1.41.83-.54.83-1.36h0Z"/><path d="m460.52,56.16c.35,0,.56.09.65.13l.32-1.02c-.13-.08-.49-.24-1.24-.24-1.2,0-1.85.76-1.85,1.88v.41h-1.7v-.33c0-.54.2-.82.64-.82.16,0,.29.03.39.06.09-.38.25-.71.47-.98h0c-.18-.1-.58-.21-1.13-.21-1.15,0-1.8.76-1.8,1.88v.41h-.67v1.06h.67v2.57c-.22,0-.53.05-.67.09v.9h2.74v-.9c-.12-.04-.44-.09-.64-.09v-2.66h1.7v2.66c-.23,0-.46.05-.6.09v.9h2.69l.13-.9c-.12-.04-.59-.09-.79-.09v-2.57h1.08v-1.06h-1.08v-.33c0-.54.2-.82.69-.82h0Z"/><path d="m473.86,56.3c0-.18.06-.33.19-.46.13-.13.28-.19.46-.19s.33.06.46.19c.13.13.19.28.19.46s-.06.33-.19.46c-.13.13-.28.19-.46.19s-.33-.06-.46-.19c-.12-.13-.19-.28-.19-.46h0Zm.14,0c0,.14.05.26.15.36.1.1.22.15.35.15s.26-.05.35-.15c.1-.1.15-.22.15-.36s-.05-.26-.15-.36c-.1-.1-.22-.15-.35-.15s-.26.05-.35.15c-.1.1-.15.22-.15.36h0Zm.58.31l-.13-.2h-.01v.2h-.15v-.62h.26c.14,0,.22.09.22.21,0,.1-.05.18-.14.21l.15.21h-.19Zm-.15-.34h.1s.07-.04.07-.08c0-.03-.03-.07-.06-.07h-.1v.15h0Z"/><path d="m501.06,61.97c-.04-.29-.06-.66-.06-1.25-.47.82-1.27,1.3-2.17,1.3-.77,0-1.38-.37-1.62-1.01-.12-.32-.17-.82-.17-1.87v-2c0-.62-.05-.89-.18-.99-.07-.07-.18-.09-.41-.11h-.22v-.27l1.89-.12c-.06,1.12-.07,1.42-.07,2.25v1.05c0,1.23.02,1.55.17,1.97.14.45.49.68.99.68.67,0,1.27-.43,1.58-1.17.18-.41.22-.68.22-1.43v-1.87c0-.64-.04-.87-.18-.98-.07-.07-.2-.11-.41-.12h-.22v-.27l1.89-.12c-.04.91-.06,1.71-.06,2.25v2.29c0,1.21.11,1.43.74,1.43h.09v.27"/><path d="m505.9,54.32c.73-.91,1.79-1.38,3.11-1.38s2.36.46,3.1,1.38c.67.85,1.01,1.9,1.01,3.17s-.34,2.33-1.01,3.15c-.75.93-1.78,1.39-3.1,1.39s-2.39-.48-3.11-1.39c-.67-.85-1.01-1.9-1.01-3.15s.33-2.31,1.01-3.17m.88,6.07c.49.86,1.26,1.32,2.23,1.32s1.74-.46,2.23-1.32c.43-.79.66-1.73.66-2.9s-.22-2.12-.66-2.9c-.49-.87-1.26-1.32-2.23-1.32s-1.74.46-2.23,1.32c-.43.8-.66,1.76-.66,2.9s.22,2.09.66,2.9"/><path d="m515.89,60.17c0,.71.04,1.03.16,1.19s.32.25.59.25.5-.06.77-.22l.11.32c-.4.21-.79.3-1.23.3-.59,0-1.04-.21-1.26-.59-.13-.25-.17-.51-.17-1.41v-3.92h-.77v-.28c.72-.06,1.08-.53,1.27-1.67l.56-.16c-.02.52-.04.98-.04,1.78h1.46v.32h-1.46"/><path d="m519.9,60.17c0,.71.04,1.03.16,1.19s.32.25.59.25.5-.06.77-.22l.11.32c-.4.21-.79.3-1.23.3-.59,0-1.04-.21-1.26-.59-.13-.25-.17-.51-.17-1.41v-3.92h-.77v-.28c.72-.06,1.08-.53,1.27-1.67l.56-.16c-.02.52-.04.98-.04,1.78h1.46v.32h-1.45"/><path d="m528.03,61.86c-.47.07-1.01.12-1.26.12-.36,0-.47-.2-.51-1-.2.22-.36.35-.59.52-.54.39-.96.52-1.58.52-.54,0-.94-.12-1.24-.37-.33-.29-.54-.77-.54-1.28,0-.96.61-1.57,1.79-1.84.63-.14,1.27-.23,2.17-.29v-.76c0-.55-.05-.85-.17-1.1-.16-.32-.5-.47-1-.47-.81,0-1.22.36-1.27,1.11-.02.25-.04.34-.13.41-.09.06-.25.09-.43.09-.41,0-.59-.11-.59-.36,0-.43.32-.87.83-1.16.47-.25,1.06-.39,1.78-.39.78,0,1.34.18,1.63.53.25.3.36.7.36,1.37t-.02,1.23l-.02,1.15-.02.55c0,.51.06.94.13,1.04.07.09.22.13.68.13m-1.76-3.1c-1.08.09-1.56.2-2.05.43-.54.25-.81.74-.81,1.38,0,.76.41,1.28,1.02,1.28s1.26-.36,1.56-.89c.2-.34.28-.85.28-1.64v-.56h0Z"/><path d="m531.07,61.93h-.63l-1.51-5.02c-.21-.69-.36-.84-.95-.87v-.27h2.7v.27c-.59.02-.81.14-.81.45,0,.09.04.28.11.53l1.1,3.8,1.61-4.89h.5l1.55,4.89,1.06-3.56c.09-.3.14-.53.14-.7,0-.21-.13-.36-.34-.43-.15-.05-.23-.06-.55-.09v-.27h2.39v.27c-.67.04-.9.27-1.19,1.19l-1.48,4.7h-.62l-1.52-4.65"/><path d="m543.22,61.86c-.47.07-1.01.12-1.26.12-.36,0-.47-.2-.51-1-.2.22-.36.35-.59.52-.54.39-.96.52-1.58.52-.54,0-.93-.12-1.24-.37-.33-.29-.54-.77-.54-1.28,0-.96.61-1.57,1.79-1.84.63-.14,1.28-.23,2.17-.29v-.76c0-.55-.05-.85-.17-1.1-.16-.32-.5-.47-1-.47-.81,0-1.22.36-1.27,1.11-.02.25-.04.34-.13.41-.09.06-.25.09-.43.09-.41,0-.6-.11-.6-.36,0-.43.32-.87.83-1.16.46-.25,1.06-.39,1.78-.39.78,0,1.34.18,1.63.53.25.3.36.7.36,1.37t-.02,1.23l-.02,1.15-.02.55c0,.51.06.94.13,1.04.07.09.22.13.68.13m-1.75-3.1c-1.08.09-1.56.2-2.05.43-.54.25-.81.74-.81,1.38,0,.76.41,1.28,1.02,1.28s1.26-.36,1.56-.89c.2-.34.28-.85.28-1.64v-.56h0Z"/><path d="m514.1,25.39h-2.7v1.42h-2.66v20.78h21.99v-20.78h-2.66v-1.42h-2.7c-1.15-1.87-3.14-2.89-5.62-2.89s-4.47,1.03-5.63,2.89m.34,1.16h.35l.17-.3c1.17-2.13,3.24-2.59,4.78-2.59s3.61.45,4.78,2.59l.17.3h2.22v1.42h2.66v18.46h-19.66v-18.46h2.66v-1.42h1.87Z"/><rect x="511.12" y="43.32" width="17.21" height=".64"/><rect x="510.62" y="44.43" width="18.22" height=".64"/><path d="m519.53,29.28l-8.6,3.08.4,1.09s8.03-2.87,8.41-3c.38.13,8.41,3,8.41,3l.4-1.09-8.8-3.15"/><path d="m527.14,41.51l-.16-6.52c.06.02.11.04.17.04.2,0,.36-.16.36-.36,0-.09-.04-.19-.1-.25h.29v-.64h-15.96v.64h.29c-.06.06-.1.16-.1.25,0,.2.17.36.36.36.06,0,.11-.02.17-.04l-.16,6.51h-.6v1.07h16.04v-1.07m-12.11,0h-1.84l-.16-6.51s.1.04.17.04c.2,0,.36-.16.36-.36,0-.09-.04-.19-.1-.25h1.3c-.06.06-.1.16-.1.25,0,.2.17.36.36.36.06,0,.12-.02.17-.04l-.16,6.51Zm3.34,0h-1.84l-.16-6.51s.1.04.17.04c.21,0,.36-.16.36-.36,0-.09-.04-.19-.1-.25h1.31c-.06.06-.1.16-.1.25,0,.2.17.36.36.36.06,0,.11-.02.17-.04l-.17,6.51Zm3.34,0h-1.84l-.16-6.51s.1.03.16.03c.2,0,.36-.16.36-.36,0-.09-.04-.19-.1-.25h1.31c-.06.06-.1.16-.1.25,0,.2.17.36.36.36.06,0,.12-.02.17-.04l-.16,6.52Zm3.33,0h-1.84l-.16-6.51s.1.04.16.04c.21,0,.36-.16.36-.36,0-.09-.04-.19-.1-.25h1.31c-.06.06-.1.16-.1.25,0,.2.17.36.36.36.06,0,.11-.02.16-.04l-.15,6.51Z"/></g></svg>